<svg xmlns="http://www.w3.org/2000/svg" xmlns:xlink="http://www.w3.org/1999/xlink" width="1366" zoomAndPan="magnify" viewBox="0 0 1024.5 576" height="768" preserveAspectRatio="xMidYMid meet" version="1.0"><defs><clipPath id="211a8be11a"><path d="M 227.453125 4.203125 L 796.546875 4.203125 L 796.546875 573.296875 L 227.453125 573.296875 Z M 227.453125 4.203125 " clip-rule="nonzero"/></clipPath><clipPath id="27535abacb"><path d="M 512 4.203125 C 354.847656 4.203125 227.453125 131.597656 227.453125 288.75 C 227.453125 445.902344 354.847656 573.296875 512 573.296875 C 669.152344 573.296875 796.546875 445.902344 796.546875 288.75 C 796.546875 131.597656 669.152344 4.203125 512 4.203125 Z M 512 4.203125 " clip-rule="nonzero"/></clipPath><clipPath id="986032d358"><path d="M 0.453125 0.203125 L 569.546875 0.203125 L 569.546875 569.296875 L 0.453125 569.296875 Z M 0.453125 0.203125 " clip-rule="nonzero"/></clipPath><clipPath id="73cfb1f640"><path d="M 285 0.203125 C 127.847656 0.203125 0.453125 127.597656 0.453125 284.75 C 0.453125 441.902344 127.847656 569.296875 285 569.296875 C 442.152344 569.296875 569.546875 441.902344 569.546875 284.75 C 569.546875 127.597656 442.152344 0.203125 285 0.203125 Z M 285 0.203125 " clip-rule="nonzero"/></clipPath><clipPath id="d6598b0e3d"><rect x="0" width="570" y="0" height="570"/></clipPath><clipPath id="5e449b2da4"><path d="M 227.453125 4.203125 L 796.425781 4.203125 L 796.425781 573.175781 L 227.453125 573.175781 Z M 227.453125 4.203125 " clip-rule="nonzero"/></clipPath><clipPath id="0663930092"><path d="M 511.996094 4.203125 C 354.847656 4.203125 227.453125 131.597656 227.453125 288.746094 C 227.453125 445.898438 354.847656 573.292969 511.996094 573.292969 C 669.148438 573.292969 796.542969 445.898438 796.542969 288.746094 C 796.542969 131.597656 669.148438 4.203125 511.996094 4.203125 Z M 511.996094 4.203125 " clip-rule="nonzero"/></clipPath><clipPath id="638e5bd8c7"><path d="M 315 286 L 709 286 L 709 489.664062 L 315 489.664062 Z M 315 286 " clip-rule="nonzero"/></clipPath><clipPath id="6dcc93ff68"><path d="M 405 45.878906 L 620 45.878906 L 620 260 L 405 260 Z M 405 45.878906 " clip-rule="nonzero"/></clipPath></defs><g clip-path="url(#211a8be11a)"><g clip-path="url(#27535abacb)"><g transform="matrix(1, 0, 0, 1, 227, 4)"><g clip-path="url(#d6598b0e3d)"><g clip-path="url(#986032d358)"><g clip-path="url(#73cfb1f640)"><path fill="#d9d9d9" d="M 0.453125 0.203125 L 569.546875 0.203125 L 569.546875 569.296875 L 0.453125 569.296875 Z M 0.453125 0.203125 " fill-opacity="1" fill-rule="nonzero"/></g></g></g></g></g></g><g clip-path="url(#5e449b2da4)"><g clip-path="url(#0663930092)"><path stroke-linecap="butt" transform="matrix(0.749634, 0, 0, 0.749634, 227.452827, 4.202368)" fill="none" stroke-linejoin="miter" d="M 379.576173 0.00101049 C 169.942667 0.00101049 0.000397567 169.94328 0.000397567 379.576786 C 0.000397567 589.215502 169.942667 759.157772 379.576173 759.157772 C 589.214889 759.157772 759.157159 589.215502 759.157159 379.576786 C 759.157159 169.94328 589.214889 0.00101049 379.576173 0.00101049 Z M 379.576173 0.00101049 " stroke="#d9d9d9" stroke-width="8" stroke-opacity="1" stroke-miterlimit="4"/></g></g><path fill="#a6a6a6" d="M 704.117188 484.617188 L 320.070312 484.617188 C 320.070312 484.617188 325.042969 294.488281 512.09375 291.042969 C 512.09375 291.042969 704.117188 290.871094 704.117188 484.617188 " fill-opacity="1" fill-rule="nonzero"/><g clip-path="url(#638e5bd8c7)"><path fill="#a6a6a6" d="M 704.117188 484.617188 L 704.117188 479.835938 L 320.070312 479.835938 L 320.070312 484.617188 L 324.851562 484.753906 L 324.851562 484.65625 C 324.910156 482.167969 326.902344 435.25 351.335938 389.113281 C 363.542969 366.035156 381.265625 343.1875 407.097656 325.871094 C 432.929688 308.550781 466.933594 296.667969 512.171875 295.828125 L 512.09375 291.042969 L 512.09375 295.828125 C 512.09375 295.828125 512.820312 295.828125 514.199219 295.882812 C 519.382812 296.058594 533.679688 296.898438 552.125 300.820312 C 579.8125 306.734375 616.746094 319.632812 646.519531 347.398438 C 661.40625 361.308594 674.574219 378.894531 684.046875 401.359375 C 693.535156 423.824219 699.335938 451.1875 699.335938 484.617188 L 704.117188 484.617188 L 704.117188 479.835938 L 704.117188 484.617188 L 708.902344 484.617188 C 708.921875 435.496094 696.714844 398.183594 678.207031 370.148438 C 664.335938 349.140625 647 333.351562 628.859375 321.566406 C 601.628906 303.882812 572.621094 295.101562 550.34375 290.699219 C 528.070312 286.296875 512.515625 286.257812 512.09375 286.257812 L 511.996094 286.257812 C 464.445312 287.121094 428.03125 299.941406 400.476562 318.789062 C 379.808594 332.929688 364.136719 350.402344 352.292969 368.601562 C 334.535156 395.90625 325.332031 424.78125 320.507812 446.863281 C 315.6875 468.964844 315.285156 484.273438 315.285156 484.503906 C 315.246094 485.804688 315.726562 487.046875 316.644531 487.96875 C 317.542969 488.886719 318.769531 489.402344 320.070312 489.402344 L 704.117188 489.402344 C 705.382812 489.402344 706.605469 488.90625 707.503906 488.003906 C 708.40625 487.125 708.902344 485.882812 708.902344 484.617188 L 704.117188 484.617188 " fill-opacity="1" fill-rule="nonzero"/></g><path fill="#a6a6a6" d="M 409.851562 152.941406 C 409.851562 96.472656 455.625 50.691406 512.09375 50.691406 C 568.5625 50.691406 614.335938 96.472656 614.335938 152.941406 C 614.335938 209.410156 568.5625 255.203125 512.09375 255.203125 C 455.625 255.203125 409.851562 209.410156 409.851562 152.941406 " fill-opacity="1" fill-rule="nonzero"/><g clip-path="url(#6dcc93ff68)"><path fill="#a6a6a6" d="M 409.851562 152.941406 L 414.636719 152.941406 C 414.636719 126 425.523438 101.679688 443.167969 84.015625 C 460.828125 66.375 485.152344 55.464844 512.09375 55.464844 C 539.035156 55.464844 563.359375 66.375 581.019531 84.015625 C 598.664062 101.679688 609.550781 126 609.550781 152.941406 C 609.550781 179.867188 598.664062 204.207031 581.019531 221.847656 C 563.359375 239.511719 539.015625 250.398438 512.09375 250.417969 C 485.152344 250.398438 460.828125 239.511719 443.1875 221.847656 C 425.523438 204.207031 414.636719 179.867188 414.636719 152.941406 L 405.070312 152.941406 C 405.070312 212.050781 452.964844 259.96875 512.09375 259.988281 C 571.222656 259.96875 619.117188 212.050781 619.117188 152.941406 C 619.117188 93.8125 571.222656 45.90625 512.09375 45.90625 C 452.964844 45.90625 405.070312 93.8125 405.070312 152.941406 L 409.851562 152.941406 " fill-opacity="1" fill-rule="nonzero"/></g></svg>